<svg width="1024" height="768" viewBox="0 0 1024 768" fill="none" xmlns="http://www.w3.org/2000/svg">
<g filter="url(#filter0_d_13_151)">
<path d="M288.941 629.6C288.941 630.556 288.619 631.356 287.975 632C287.332 632.644 286.532 632.966 285.575 632.966C284.656 632.966 283.883 632.644 283.258 632C282.633 631.356 282.32 630.556 282.32 629.6V595.503C282.32 594.547 282.642 593.747 283.286 593.103C283.93 592.46 284.73 592.138 285.686 592.138C286.642 592.138 287.424 592.46 288.031 593.103C288.638 593.747 288.941 594.547 288.941 595.503V629.6Z" fill="#A9A9A9"/>
<path d="M340.473 618.235C340.473 621.251 339.801 623.908 338.459 626.207C337.116 628.506 335.314 630.299 333.052 631.586C330.79 632.874 328.261 633.517 325.466 633.517C322.67 633.517 320.141 632.874 317.88 631.586C315.617 630.299 313.815 628.506 312.472 626.207C311.13 623.908 310.458 621.251 310.458 618.235C310.458 615.219 311.13 612.561 312.472 610.262C313.815 607.963 315.617 606.161 317.88 604.855C320.141 603.549 322.67 602.897 325.466 602.897C328.261 602.897 330.79 603.549 333.052 604.855C335.314 606.161 337.116 607.963 338.459 610.262C339.801 612.561 340.473 615.219 340.473 618.235ZM333.852 618.235C333.852 616.359 333.475 614.731 332.721 613.352C331.967 611.972 330.955 610.897 329.686 610.124C328.417 609.352 327.01 608.966 325.466 608.966C323.921 608.966 322.514 609.352 321.245 610.124C319.976 610.897 318.964 611.972 318.21 613.352C317.456 614.731 317.079 616.359 317.079 618.235C317.079 620.074 317.456 621.683 318.21 623.062C318.964 624.442 319.976 625.517 321.245 626.29C322.514 627.062 323.921 627.448 325.466 627.448C327.01 627.448 328.417 627.062 329.686 626.29C330.955 625.517 331.967 624.442 332.721 623.062C333.475 621.683 333.852 620.074 333.852 618.235Z" fill="#A9A9A9"/>
<path d="M376.611 592.138C377.42 592.138 378.211 592.248 378.983 592.469C379.756 592.69 380.399 593.048 380.914 593.545C381.429 594.041 381.687 594.694 381.687 595.503C381.687 596.423 381.42 597.149 380.887 597.683C380.354 598.216 379.737 598.483 379.039 598.483C378.707 598.483 378.211 598.4 377.549 598.234C376.887 598.069 376.243 597.986 375.618 597.986C374.698 597.986 373.99 598.188 373.493 598.593C372.997 598.998 372.657 599.467 372.473 600C372.289 600.533 372.197 601.002 372.197 601.407V629.6C372.197 630.556 371.885 631.356 371.259 632C370.634 632.644 369.843 632.966 368.887 632.966C367.931 632.966 367.139 632.644 366.514 632C365.889 631.356 365.576 630.556 365.576 629.6V601.462C365.576 598.85 366.496 596.644 368.335 594.842C370.174 593.039 372.933 592.138 376.611 592.138ZM377.218 604C378.101 604 378.836 604.285 379.425 604.855C380.013 605.425 380.308 606.152 380.308 607.034C380.308 607.917 380.013 608.644 379.425 609.214C378.836 609.784 378.101 610.069 377.218 610.069H362.597C361.714 610.069 360.978 609.784 360.39 609.214C359.801 608.644 359.507 607.917 359.507 607.034C359.507 606.152 359.801 605.425 360.39 604.855C360.978 604.285 361.714 604 362.597 604H377.218Z" fill="#A9A9A9"/>
<path d="M400.225 604H413.301C414.184 604 414.92 604.294 415.508 604.883C416.096 605.471 416.391 606.207 416.391 607.09C416.391 607.936 416.096 608.644 415.508 609.214C414.92 609.784 414.184 610.069 413.301 610.069H400.225C399.342 610.069 398.607 609.775 398.018 609.186C397.43 608.598 397.135 607.862 397.135 606.979C397.135 606.134 397.43 605.425 398.018 604.855C398.607 604.285 399.342 604 400.225 604ZM406.129 597.103C407.085 597.103 407.867 597.425 408.473 598.069C409.08 598.713 409.384 599.513 409.384 600.469V625.021C409.384 625.536 409.485 625.959 409.687 626.29C409.89 626.621 410.165 626.86 410.515 627.007C410.864 627.154 411.241 627.228 411.646 627.228C412.087 627.228 412.492 627.145 412.859 626.98C413.227 626.814 413.651 626.731 414.128 626.731C414.644 626.731 415.112 626.97 415.536 627.448C415.958 627.927 416.17 628.589 416.17 629.435C416.17 630.465 415.609 631.311 414.487 631.972C413.365 632.635 412.161 632.966 410.873 632.966C410.101 632.966 409.246 632.901 408.308 632.772C407.37 632.644 406.487 632.331 405.66 631.835C404.832 631.338 404.142 630.575 403.59 629.545C403.039 628.515 402.763 627.099 402.763 625.297V600.469C402.763 599.513 403.085 598.713 403.729 598.069C404.372 597.425 405.172 597.103 406.129 597.103Z" fill="#A9A9A9"/>
<path d="M477.247 602.897C478.203 602.897 478.994 603.209 479.619 603.834C480.245 604.46 480.557 605.269 480.557 606.262V629.6C480.557 630.556 480.245 631.356 479.619 632C478.994 632.644 478.203 632.966 477.247 632.966C476.29 632.966 475.5 632.644 474.874 632C474.249 631.356 473.937 630.556 473.937 629.6V626.897L475.15 627.393C475.15 627.871 474.893 628.451 474.378 629.131C473.863 629.812 473.164 630.483 472.281 631.145C471.399 631.807 470.359 632.368 469.164 632.828C467.969 633.287 466.672 633.517 465.274 633.517C462.736 633.517 460.437 632.865 458.378 631.559C456.318 630.253 454.69 628.451 453.495 626.152C452.299 623.853 451.702 621.214 451.702 618.235C451.702 615.219 452.299 612.561 453.495 610.262C454.69 607.963 456.299 606.161 458.323 604.855C460.346 603.549 462.589 602.897 465.053 602.897C466.635 602.897 468.088 603.135 469.412 603.614C470.736 604.092 471.886 604.699 472.861 605.434C473.835 606.17 474.589 606.915 475.123 607.669C475.656 608.423 475.923 609.057 475.923 609.572L473.937 610.29V606.262C473.937 605.306 474.249 604.506 474.874 603.862C475.5 603.218 476.29 602.897 477.247 602.897ZM466.102 627.448C467.72 627.448 469.136 627.044 470.35 626.234C471.564 625.426 472.511 624.322 473.191 622.924C473.872 621.526 474.212 619.963 474.212 618.235C474.212 616.469 473.872 614.887 473.191 613.49C472.511 612.092 471.564 610.988 470.35 610.179C469.136 609.37 467.72 608.966 466.102 608.966C464.52 608.966 463.122 609.37 461.909 610.179C460.695 610.988 459.748 612.092 459.067 613.49C458.387 614.887 458.047 616.469 458.047 618.235C458.047 619.963 458.387 621.526 459.067 622.924C459.748 624.322 460.695 625.426 461.909 626.234C463.122 627.044 464.52 627.448 466.102 627.448Z" fill="#A9A9A9"/>
<path d="M518.461 602.897C521.036 602.897 523.344 603.549 525.385 604.855C527.427 606.161 529.045 607.954 530.24 610.235C531.436 612.515 532.034 615.163 532.034 618.179C532.034 621.195 531.436 623.853 530.24 626.152C529.045 628.451 527.445 630.253 525.44 631.559C523.436 632.865 521.183 633.517 518.682 633.517C517.211 633.517 515.831 633.278 514.544 632.8C513.257 632.322 512.126 631.715 511.151 630.98C510.176 630.244 509.422 629.499 508.889 628.745C508.355 627.991 508.089 627.356 508.089 626.842L509.799 626.124V640.635C509.799 641.591 509.487 642.391 508.861 643.035C508.236 643.678 507.445 644 506.489 644C505.532 644 504.741 643.688 504.116 643.062C503.491 642.437 503.178 641.628 503.178 640.635V606.814C503.178 605.857 503.491 605.057 504.116 604.414C504.741 603.77 505.532 603.448 506.489 603.448C507.445 603.448 508.236 603.77 508.861 604.414C509.487 605.057 509.799 605.857 509.799 606.814V609.517L508.861 609.021C508.861 608.542 509.119 607.963 509.634 607.283C510.148 606.602 510.847 605.922 511.73 605.241C512.613 604.561 513.633 604 514.792 603.559C515.951 603.117 517.174 602.897 518.461 602.897ZM517.633 608.966C516.015 608.966 514.599 609.37 513.385 610.179C512.172 610.988 511.224 612.083 510.544 613.462C509.863 614.841 509.523 616.414 509.523 618.179C509.523 619.908 509.863 621.48 510.544 622.896C511.224 624.313 512.172 625.426 513.385 626.234C514.599 627.044 516.015 627.448 517.633 627.448C519.252 627.448 520.659 627.044 521.854 626.234C523.05 625.426 523.987 624.313 524.668 622.896C525.349 621.48 525.689 619.908 525.689 618.179C525.689 616.414 525.349 614.841 524.668 613.462C523.987 612.083 523.05 610.988 521.854 610.179C520.659 609.37 519.252 608.966 517.633 608.966Z" fill="#A9A9A9"/>
<path d="M576.89 602.897C577.846 602.897 578.636 603.209 579.262 603.834C579.887 604.46 580.2 605.269 580.2 606.262V629.6C580.2 630.556 579.887 631.356 579.262 632C578.636 632.644 577.846 632.966 576.89 632.966C575.933 632.966 575.142 632.644 574.517 632C573.892 631.356 573.579 630.556 573.579 629.6V626.897L574.793 627.393C574.793 627.871 574.535 628.451 574.021 629.131C573.506 629.812 572.807 630.483 571.924 631.145C571.041 631.807 570.002 632.368 568.806 632.828C567.611 633.287 566.315 633.517 564.917 633.517C562.379 633.517 560.08 632.865 558.02 631.559C555.961 630.253 554.333 628.451 553.137 626.152C551.942 623.853 551.344 621.214 551.344 618.235C551.344 615.219 551.942 612.561 553.137 610.262C554.333 607.963 555.942 606.161 557.965 604.855C559.988 603.549 562.232 602.897 564.696 602.897C566.278 602.897 567.731 603.135 569.055 603.614C570.379 604.092 571.528 604.699 572.503 605.434C573.478 606.17 574.232 606.915 574.765 607.669C575.298 608.423 575.565 609.057 575.565 609.572L573.579 610.29V606.262C573.579 605.306 573.892 604.506 574.517 603.862C575.142 603.218 575.933 602.897 576.89 602.897ZM565.744 627.448C567.363 627.448 568.779 627.044 569.993 626.234C571.207 625.426 572.154 624.322 572.834 622.924C573.514 621.526 573.855 619.963 573.855 618.235C573.855 616.469 573.514 614.887 572.834 613.49C572.154 612.092 571.207 610.988 569.993 610.179C568.779 609.37 567.363 608.966 565.744 608.966C564.163 608.966 562.765 609.37 561.551 610.179C560.337 610.988 559.39 612.092 558.71 613.49C558.03 614.887 557.689 616.469 557.689 618.235C557.689 619.963 558.03 621.526 558.71 622.924C559.39 624.322 560.337 625.426 561.551 626.234C562.765 627.044 564.163 627.448 565.744 627.448Z" fill="#A9A9A9"/>
<path d="M606.131 632.966C605.175 632.966 604.384 632.644 603.759 632C603.134 631.356 602.821 630.556 602.821 629.6V606.814C602.821 605.857 603.134 605.057 603.759 604.414C604.384 603.77 605.175 603.448 606.131 603.448C607.088 603.448 607.878 603.77 608.504 604.414C609.129 605.057 609.442 605.857 609.442 606.814V612L609.056 608.303C609.46 607.421 609.984 606.639 610.628 605.959C611.272 605.278 611.998 604.708 612.807 604.248C613.616 603.788 614.481 603.448 615.4 603.228C616.32 603.007 617.239 602.897 618.159 602.897C619.262 602.897 620.191 603.209 620.945 603.834C621.699 604.46 622.076 605.196 622.076 606.041C622.076 607.255 621.764 608.129 621.138 608.662C620.513 609.195 619.833 609.462 619.097 609.462C618.398 609.462 617.764 609.333 617.194 609.076C616.623 608.819 615.97 608.69 615.235 608.69C614.573 608.69 613.901 608.846 613.221 609.159C612.541 609.471 611.915 609.958 611.345 610.621C610.775 611.283 610.315 612.101 609.966 613.076C609.616 614.051 609.442 615.2 609.442 616.524V629.6C609.442 630.556 609.129 631.356 608.504 632C607.878 632.644 607.088 632.966 606.131 632.966Z" fill="#A9A9A9"/>
<path d="M642.545 604H655.621C656.504 604 657.24 604.294 657.828 604.883C658.417 605.471 658.711 606.207 658.711 607.09C658.711 607.936 658.417 608.644 657.828 609.214C657.24 609.784 656.504 610.069 655.621 610.069H642.545C641.663 610.069 640.927 609.775 640.339 609.186C639.75 608.598 639.456 607.862 639.456 606.979C639.456 606.134 639.75 605.425 640.339 604.855C640.927 604.285 641.663 604 642.545 604ZM648.449 597.103C649.405 597.103 650.187 597.425 650.794 598.069C651.401 598.713 651.704 599.513 651.704 600.469V625.021C651.704 625.536 651.805 625.959 652.008 626.29C652.21 626.621 652.486 626.86 652.835 627.007C653.185 627.154 653.562 627.228 653.966 627.228C654.408 627.228 654.812 627.145 655.18 626.98C655.548 626.814 655.971 626.731 656.449 626.731C656.964 626.731 657.433 626.97 657.856 627.448C658.279 627.927 658.49 628.589 658.49 629.435C658.49 630.465 657.93 631.311 656.807 631.972C655.686 632.635 654.481 632.966 653.194 632.966C652.421 632.966 651.566 632.901 650.628 632.772C649.69 632.644 648.808 632.331 647.98 631.835C647.152 631.338 646.463 630.575 645.911 629.545C645.359 628.515 645.083 627.099 645.083 625.297V600.469C645.083 599.513 645.405 598.713 646.049 598.069C646.693 597.425 647.493 597.103 648.449 597.103Z" fill="#A9A9A9"/>
<path d="M695.732 602.897C698.675 602.897 700.845 603.604 702.242 605.021C703.64 606.437 704.56 608.267 705.001 610.51L704.063 610.014L704.505 609.131C704.946 608.285 705.627 607.375 706.546 606.4C707.465 605.425 708.578 604.598 709.884 603.917C711.19 603.237 712.652 602.897 714.27 602.897C716.918 602.897 718.933 603.467 720.312 604.607C721.691 605.747 722.638 607.265 723.153 609.159C723.668 611.053 723.925 613.159 723.925 615.476V629.6C723.925 630.556 723.613 631.356 722.988 632C722.362 632.644 721.572 632.966 720.615 632.966C719.659 632.966 718.868 632.644 718.243 632C717.617 631.356 717.305 630.556 717.305 629.6V615.476C717.305 614.262 717.158 613.168 716.864 612.193C716.569 611.219 716.036 610.437 715.264 609.848C714.491 609.26 713.387 608.966 711.953 608.966C710.555 608.966 709.36 609.26 708.367 609.848C707.374 610.437 706.629 611.219 706.132 612.193C705.636 613.168 705.388 614.262 705.388 615.476V629.6C705.388 630.556 705.075 631.356 704.449 632C703.824 632.644 703.033 632.966 702.077 632.966C701.121 632.966 700.33 632.644 699.705 632C699.079 631.356 698.767 630.556 698.767 629.6V615.476C698.767 614.262 698.62 613.168 698.325 612.193C698.031 611.219 697.498 610.437 696.725 609.848C695.953 609.26 694.849 608.966 693.415 608.966C692.017 608.966 690.822 609.26 689.829 609.848C688.835 610.437 688.091 611.219 687.594 612.193C687.098 613.168 686.849 614.262 686.849 615.476V629.6C686.849 630.556 686.537 631.356 685.912 632C685.286 632.644 684.495 632.966 683.539 632.966C682.583 632.966 681.792 632.644 681.166 632C680.542 631.356 680.229 630.556 680.229 629.6V606.814C680.229 605.857 680.542 605.057 681.166 604.414C681.792 603.77 682.583 603.448 683.539 603.448C684.495 603.448 685.286 603.77 685.912 604.414C686.537 605.057 686.849 605.857 686.849 606.814V609.186L686.022 609.021C686.353 608.395 686.813 607.724 687.401 607.007C687.99 606.29 688.707 605.618 689.553 604.993C690.399 604.368 691.337 603.862 692.367 603.476C693.397 603.09 694.519 602.897 695.732 602.897Z" fill="#A9A9A9"/>
<path d="M760.174 633.517C757.048 633.517 754.335 632.865 752.036 631.559C749.737 630.253 747.972 628.479 746.74 626.234C745.507 623.991 744.891 621.453 744.891 618.621C744.891 615.31 745.562 612.487 746.905 610.152C748.247 607.816 750.004 606.023 752.174 604.772C754.344 603.522 756.643 602.897 759.07 602.897C760.946 602.897 762.721 603.283 764.395 604.055C766.068 604.828 767.549 605.885 768.836 607.228C770.123 608.57 771.144 610.124 771.898 611.89C772.652 613.655 773.029 615.531 773.029 617.517C772.992 618.4 772.643 619.117 771.981 619.669C771.319 620.221 770.547 620.496 769.664 620.496H748.588L746.933 614.979H767.181L765.967 616.083V614.593C765.894 613.526 765.517 612.57 764.836 611.724C764.155 610.878 763.31 610.207 762.298 609.71C761.286 609.214 760.211 608.966 759.07 608.966C757.967 608.966 756.937 609.113 755.981 609.407C755.025 609.701 754.197 610.198 753.498 610.897C752.799 611.595 752.247 612.534 751.843 613.71C751.438 614.887 751.236 616.377 751.236 618.179C751.236 620.165 751.65 621.848 752.477 623.228C753.305 624.607 754.372 625.655 755.677 626.373C756.983 627.09 758.372 627.448 759.843 627.448C761.204 627.448 762.289 627.338 763.098 627.117C763.907 626.897 764.56 626.63 765.057 626.317C765.553 626.005 766.004 625.738 766.408 625.517C767.07 625.186 767.696 625.021 768.284 625.021C769.094 625.021 769.765 625.297 770.298 625.848C770.832 626.4 771.098 627.044 771.098 627.78C771.098 628.772 770.583 629.674 769.553 630.483C768.597 631.292 767.254 632 765.526 632.607C763.797 633.214 762.013 633.517 760.174 633.517Z" fill="#A9A9A9"/>
<path d="M809.775 602.897C812.497 602.897 814.566 603.467 815.982 604.607C817.398 605.747 818.372 607.265 818.906 609.159C819.439 611.053 819.706 613.159 819.706 615.476V629.6C819.706 630.556 819.393 631.356 818.768 632C818.142 632.644 817.352 632.966 816.396 632.966C815.439 632.966 814.648 632.644 814.023 632C813.398 631.356 813.085 630.556 813.085 629.6V615.476C813.085 614.262 812.929 613.168 812.616 612.193C812.303 611.219 811.743 610.437 810.933 609.848C810.124 609.26 808.965 608.966 807.458 608.966C805.986 608.966 804.745 609.26 803.733 609.848C802.722 610.437 801.949 611.219 801.416 612.193C800.883 613.168 800.616 614.262 800.616 615.476V629.6C800.616 630.556 800.304 631.356 799.678 632C799.053 632.644 798.262 632.966 797.306 632.966C796.349 632.966 795.558 632.644 794.933 632C794.308 631.356 793.995 630.556 793.995 629.6V606.814C793.995 605.857 794.308 605.057 794.933 604.414C795.558 603.77 796.349 603.448 797.306 603.448C798.262 603.448 799.053 603.77 799.678 604.414C800.304 605.057 800.616 605.857 800.616 606.814V609.186L799.789 609.021C800.12 608.395 800.597 607.724 801.223 607.007C801.848 606.29 802.584 605.618 803.43 604.993C804.276 604.368 805.232 603.862 806.299 603.476C807.365 603.09 808.524 602.897 809.775 602.897Z" fill="#A9A9A9"/>
<path d="M842.658 604H855.734C856.617 604 857.352 604.294 857.941 604.883C858.529 605.471 858.824 606.207 858.824 607.09C858.824 607.936 858.529 608.644 857.941 609.214C857.352 609.784 856.617 610.069 855.734 610.069H842.658C841.775 610.069 841.04 609.775 840.451 609.186C839.863 608.598 839.568 607.862 839.568 606.979C839.568 606.134 839.863 605.425 840.451 604.855C841.04 604.285 841.775 604 842.658 604ZM848.562 597.103C849.518 597.103 850.299 597.425 850.906 598.069C851.513 598.713 851.817 599.513 851.817 600.469V625.021C851.817 625.536 851.918 625.959 852.12 626.29C852.322 626.621 852.598 626.86 852.948 627.007C853.297 627.154 853.674 627.228 854.079 627.228C854.52 627.228 854.924 627.145 855.292 626.98C855.66 626.814 856.083 626.731 856.561 626.731C857.076 626.731 857.545 626.97 857.968 627.448C858.391 627.927 858.603 628.589 858.603 629.435C858.603 630.465 858.042 631.311 856.92 631.972C855.798 632.635 854.594 632.966 853.306 632.966C852.534 632.966 851.679 632.901 850.741 632.772C849.803 632.644 848.92 632.331 848.093 631.835C847.265 631.338 846.575 630.575 846.023 629.545C845.472 628.515 845.196 627.099 845.196 625.297V600.469C845.196 599.513 845.517 598.713 846.161 598.069C846.805 597.425 847.605 597.103 848.562 597.103Z" fill="#A9A9A9"/>
<path d="M878.631 628.386C878.263 627.871 878.098 627.209 878.134 626.4C878.171 625.591 878.649 624.892 879.569 624.303C880.157 623.936 880.783 623.779 881.445 623.834C882.107 623.89 882.751 624.23 883.376 624.855C884.442 625.922 885.564 626.749 886.741 627.338C887.919 627.927 889.39 628.221 891.155 628.221C891.707 628.184 892.314 628.101 892.976 627.972C893.638 627.844 894.217 627.549 894.714 627.09C895.21 626.63 895.459 625.922 895.459 624.965C895.459 624.157 895.183 623.513 894.631 623.034C894.079 622.556 893.353 622.152 892.452 621.821C891.551 621.49 890.548 621.177 889.445 620.883C888.305 620.552 887.137 620.184 885.941 619.779C884.746 619.375 883.652 618.851 882.658 618.207C881.665 617.563 880.856 616.708 880.231 615.641C879.606 614.575 879.293 613.232 879.293 611.614C879.293 609.774 879.808 608.212 880.838 606.924C881.868 605.637 883.201 604.644 884.838 603.945C886.475 603.246 888.194 602.897 889.996 602.897C891.137 602.897 892.332 603.034 893.583 603.31C894.833 603.586 896.029 604.028 897.169 604.634C898.31 605.241 899.266 606.041 900.038 607.034C900.443 607.586 900.682 608.248 900.755 609.021C900.829 609.793 900.479 610.492 899.707 611.117C899.155 611.558 898.512 611.752 897.776 611.697C897.041 611.641 896.433 611.393 895.955 610.952C895.33 610.142 894.493 609.499 893.445 609.021C892.396 608.542 891.192 608.303 889.831 608.303C889.279 608.303 888.682 608.368 888.038 608.497C887.394 608.625 886.834 608.901 886.355 609.324C885.877 609.747 885.638 610.418 885.638 611.338C885.638 612.184 885.914 612.855 886.466 613.352C887.017 613.848 887.762 614.253 888.7 614.566C889.638 614.878 890.64 615.182 891.707 615.476C892.81 615.77 893.932 616.12 895.073 616.524C896.213 616.929 897.261 617.462 898.217 618.124C899.174 618.786 899.946 619.641 900.535 620.69C901.123 621.738 901.417 623.071 901.417 624.69C901.417 626.566 900.866 628.166 899.762 629.49C898.659 630.814 897.279 631.816 895.624 632.497C893.969 633.177 892.277 633.517 890.548 633.517C888.378 633.517 886.208 633.14 884.038 632.386C881.868 631.632 880.065 630.299 878.631 628.386Z" fill="#A9A9A9"/>
<path fill-rule="evenodd" clip-rule="evenodd" d="M248.321 445.662C248.398 436.734 248.485 423.548 248.528 421.566C243.489 417.038 235.004 414.208 229.597 409.726L229.559 399.12C225.955 397.512 222.137 394.755 218.306 392.634C204.484 384.977 209.374 384.065 195.175 392.67C191.959 394.619 186.98 397.709 183.837 399.134C184.491 417.942 182.062 407.709 164.824 421.462L165.029 439.661C164.852 439.142 164.679 438.631 164.509 438.128C150.984 398.023 159.697 408.99 142.755 399.939C137.941 397.366 133.585 395.226 128.617 392.836C118.865 388.143 109.592 383.551 100.118 378.845C94.0137 375.813 76.8391 366.212 71 365.253C71.8711 367.496 74.1319 370.523 75.828 373.404C82.7098 385.096 99.0526 417.023 104.869 428.636C115.677 450.216 126.958 470.788 137.945 491.893C161.188 536.544 183.078 586.173 207.157 629.241C207.701 628.924 242.968 558.179 245.69 552.984C266.985 512.346 288.896 467.286 311.167 427.231C313.901 422.315 316.721 416.827 319.429 411.414L344.264 365C339.632 365.712 335.731 369.177 330.843 371.15C322.334 374.585 296.09 388.351 286.306 393.164C281.41 395.573 276.474 397.829 271.544 400.356C265.965 403.214 261.737 404.483 260.227 410.232C256.237 423.09 251.669 435.425 248.321 445.662ZM172.453 426.251C174.184 424.559 181.472 419.757 183.991 419.045L183.93 474.283C181.722 472.491 178.923 467.248 177.299 464.335C174.048 458.505 172.483 457.679 172.47 449.661L172.453 426.251ZM202.995 507.344C203.643 506.959 190.974 485.228 191.672 484.497L191.572 402.845C195.269 401.346 199.001 397.71 202.855 396.694L202.995 507.344ZM210.443 506.779L210.526 396.576C214.095 397.838 219.412 401.347 221.873 403.529L222.345 485.962C222.456 486.117 222.237 486.552 222.299 486.811L210.443 506.779ZM229.382 419.118C231.231 419.543 239.363 424.233 240.961 425.562C241.06 430.68 241.684 452.163 240.708 455.464C240.322 456.772 236.249 463.175 235.178 465.04C233.163 468.549 232.019 470.746 229.502 474.099L229.382 419.118Z" fill="#A9A9A9"/>
<g filter="url(#filter1_ii_13_151)">
<path d="M472.337 583.116C524.371 583.116 563.463 548.129 563.463 498.089V364.956H515.585V495.954C515.585 522.601 497.644 539.484 472.337 539.484C446.924 539.484 428.983 522.601 428.983 495.954V364.956H381.104V498.089C381.104 548.129 420.196 583.116 472.337 583.116Z" fill="url(#paint0_linear_13_151)"/>
<path d="M472.337 583.116C524.371 583.116 563.463 548.129 563.463 498.089V364.956H515.585V495.954C515.585 522.601 497.644 539.484 472.337 539.484C446.924 539.484 428.983 522.601 428.983 495.954V364.956H381.104V498.089C381.104 548.129 420.196 583.116 472.337 583.116Z" fill="url(#paint1_linear_13_151)"/>
<path d="M657.44 578.641H704.428V364.956H657.44V578.641Z" fill="url(#paint2_linear_13_151)"/>
<path d="M657.44 578.641H704.428V364.956H657.44V578.641Z" fill="url(#paint3_linear_13_151)"/>
</g>
<path fill-rule="evenodd" clip-rule="evenodd" d="M900.772 579.706L848.373 428.47L796.727 579.706H746.941L826.189 364.956H871.187L952.795 579.706H900.772Z" fill="#A9A9A9"/>
<path fill-rule="evenodd" clip-rule="evenodd" d="M509.762 226.336C511.596 224.545 519.314 219.459 521.981 218.704L521.918 277.204C519.578 275.307 516.615 269.755 514.894 266.669C511.452 260.495 509.794 259.621 509.78 251.129L509.762 226.336ZM542.108 312.218C542.794 311.811 529.377 288.796 530.116 288.022L530.01 201.548C533.926 199.961 537.878 196.11 541.96 195.033L542.108 312.218ZM549.996 311.62L550.084 194.908C553.864 196.245 559.495 199.961 562.101 202.273L562.601 289.574C562.719 289.737 562.486 290.198 562.552 290.472L549.996 311.62ZM570.053 218.782C572.012 219.232 580.625 224.198 582.316 225.606C582.421 231.027 583.082 253.778 582.049 257.274C581.64 258.659 577.326 265.441 576.192 267.416C574.058 271.132 572.847 273.458 570.181 277.01L570.053 218.782Z" fill="#A9A9A9"/>
<g filter="url(#filter2_ii_13_151)">
<path d="M654.306 325.042L700.316 325.042L637.134 234.296L614.927 262.589L654.306 325.042Z" fill="url(#paint4_linear_13_151)"/>
<path d="M432.008 325.042L546.345 153.449L588.968 221.194L610.007 194.903L561.097 124.421H502.175L373.509 325.042L432.008 325.042Z" fill="url(#paint5_linear_13_151)"/>
</g>
<path d="M546.128 295.592L663.034 136.269L797.845 129.557L682.053 159.102L559.548 325.042H515.916L474.521 279.974L499.546 239.095L546.128 295.592Z" fill="#A9A9A9"/>
<path d="M261.396 130.675L414.769 136.269L451.402 180.701L423.617 224.551L383.342 180.701L261.396 130.675Z" fill="#A9A9A9"/>
</g>
<defs>
<filter id="filter0_d_13_151" x="-4" y="0" width="1032" height="776" filterUnits="userSpaceOnUse" color-interpolation-filters="sRGB">
<feFlood flood-opacity="0" result="BackgroundImageFix"/>
<feColorMatrix in="SourceAlpha" type="matrix" values="0 0 0 0 0 0 0 0 0 0 0 0 0 0 0 0 0 0 127 0" result="hardAlpha"/>
<feOffset dy="4"/>
<feGaussianBlur stdDeviation="2"/>
<feComposite in2="hardAlpha" operator="out"/>
<feColorMatrix type="matrix" values="0 0 0 0 0 0 0 0 0 0 0 0 0 0 0 0 0 0 0.25 0"/>
<feBlend mode="normal" in2="BackgroundImageFix" result="effect1_dropShadow_13_151"/>
<feBlend mode="normal" in="SourceGraphic" in2="effect1_dropShadow_13_151" result="shape"/>
</filter>
<filter id="filter1_ii_13_151" x="376.104" y="364.956" width="333.324" height="223.16" filterUnits="userSpaceOnUse" color-interpolation-filters="sRGB">
<feFlood flood-opacity="0" result="BackgroundImageFix"/>
<feBlend mode="normal" in="SourceGraphic" in2="BackgroundImageFix" result="shape"/>
<feColorMatrix in="SourceAlpha" type="matrix" values="0 0 0 0 0 0 0 0 0 0 0 0 0 0 0 0 0 0 127 0" result="hardAlpha"/>
<feOffset dx="-5"/>
<feGaussianBlur stdDeviation="5"/>
<feComposite in2="hardAlpha" operator="arithmetic" k2="-1" k3="1"/>
<feColorMatrix type="matrix" values="0 0 0 0 0.920833 0 0 0 0 0.89878 0 0 0 0 0.698299 0 0 0 1 0"/>
<feBlend mode="normal" in2="shape" result="effect1_innerShadow_13_151"/>
<feColorMatrix in="SourceAlpha" type="matrix" values="0 0 0 0 0 0 0 0 0 0 0 0 0 0 0 0 0 0 127 0" result="hardAlpha"/>
<feOffset dx="5" dy="5"/>
<feGaussianBlur stdDeviation="5"/>
<feComposite in2="hardAlpha" operator="arithmetic" k2="-1" k3="1"/>
<feColorMatrix type="matrix" values="0 0 0 0 0 0 0 0 0 0 0 0 0 0 0 0 0 0 0.6 0"/>
<feBlend mode="normal" in2="effect1_innerShadow_13_151" result="effect2_innerShadow_13_151"/>
</filter>
<filter id="filter2_ii_13_151" x="368.509" y="124.421" width="336.807" height="205.622" filterUnits="userSpaceOnUse" color-interpolation-filters="sRGB">
<feFlood flood-opacity="0" result="BackgroundImageFix"/>
<feBlend mode="normal" in="SourceGraphic" in2="BackgroundImageFix" result="shape"/>
<feColorMatrix in="SourceAlpha" type="matrix" values="0 0 0 0 0 0 0 0 0 0 0 0 0 0 0 0 0 0 127 0" result="hardAlpha"/>
<feOffset dx="-5"/>
<feGaussianBlur stdDeviation="5"/>
<feComposite in2="hardAlpha" operator="arithmetic" k2="-1" k3="1"/>
<feColorMatrix type="matrix" values="0 0 0 0 0.920833 0 0 0 0 0.89878 0 0 0 0 0.698299 0 0 0 1 0"/>
<feBlend mode="normal" in2="shape" result="effect1_innerShadow_13_151"/>
<feColorMatrix in="SourceAlpha" type="matrix" values="0 0 0 0 0 0 0 0 0 0 0 0 0 0 0 0 0 0 127 0" result="hardAlpha"/>
<feOffset dx="5" dy="5"/>
<feGaussianBlur stdDeviation="5"/>
<feComposite in2="hardAlpha" operator="arithmetic" k2="-1" k3="1"/>
<feColorMatrix type="matrix" values="0 0 0 0 0 0 0 0 0 0 0 0 0 0 0 0 0 0 0.6 0"/>
<feBlend mode="normal" in2="effect1_innerShadow_13_151" result="effect2_innerShadow_13_151"/>
</filter>
<linearGradient id="paint0_linear_13_151" x1="472.284" y1="583.116" x2="472.284" y2="364.956" gradientUnits="userSpaceOnUse">
<stop stop-color="#AE8625"/>
<stop offset="0.208333" stop-color="#F7EF8A"/>
<stop offset="0.640625" stop-color="#D2AC47"/>
<stop offset="1" stop-color="#EDC967"/>
</linearGradient>
<linearGradient id="paint1_linear_13_151" x1="268.525" y1="536.271" x2="715.02" y2="600.46" gradientUnits="userSpaceOnUse">
<stop stop-color="#BC9937"/>
<stop offset="0.193586" stop-color="#AE8625"/>
<stop offset="0.423962" stop-color="#F7EF8A"/>
<stop offset="0.624802" stop-color="#D2AC47"/>
<stop offset="1" stop-color="#EDC967"/>
</linearGradient>
<linearGradient id="paint2_linear_13_151" x1="680.934" y1="578.641" x2="680.934" y2="364.956" gradientUnits="userSpaceOnUse">
<stop stop-color="#AE8625"/>
<stop offset="0.208333" stop-color="#F7EF8A"/>
<stop offset="0.640625" stop-color="#D2AC47"/>
<stop offset="1" stop-color="#EDC967"/>
</linearGradient>
<linearGradient id="paint3_linear_13_151" x1="634" y1="534" x2="787.827" y2="538.574" gradientUnits="userSpaceOnUse">
<stop stop-color="#BC9937"/>
<stop offset="0.193586" stop-color="#AE8625"/>
<stop offset="0.423962" stop-color="#F7EF8A"/>
<stop offset="0.624802" stop-color="#D2AC47"/>
<stop offset="1" stop-color="#EDC967"/>
</linearGradient>
<linearGradient id="paint4_linear_13_151" x1="562.212" y1="305.556" x2="770.156" y2="339.209" gradientUnits="userSpaceOnUse">
<stop stop-color="#BC9937"/>
<stop offset="0.300548" stop-color="#AE8625"/>
<stop offset="0.506748" stop-color="#F7EF8A"/>
<stop offset="0.60807" stop-color="#D2AC47"/>
<stop offset="1" stop-color="#EDC967"/>
</linearGradient>
<linearGradient id="paint5_linear_13_151" x1="227.506" y1="281.963" x2="795.191" y2="397.057" gradientUnits="userSpaceOnUse">
<stop stop-color="#BC9937"/>
<stop offset="0.300548" stop-color="#AE8625"/>
<stop offset="0.506748" stop-color="#F7EF8A"/>
<stop offset="0.60807" stop-color="#D2AC47"/>
<stop offset="1" stop-color="#EDC967"/>
</linearGradient>
</defs>
</svg>
